<svg width="40" height="48" viewBox="0 0 40 48" fill="none" xmlns="http://www.w3.org/2000/svg">
<g clip-path="url(#clip0_2131_244)" filter="url(#filter0_dddd_2131_244)">
<g filter="url(#filter1_ddddd_2131_244)">
<path d="M29.8985 15.0511H25.9523C25.9962 15.014 26.0412 14.978 26.0839 14.9386C26.4256 14.6351 26.7009 14.2643 26.8927 13.8495C27.0846 13.4347 27.1887 12.9848 27.1987 12.5279C27.2135 12.0281 27.126 11.5305 26.9415 11.0657C26.757 10.601 26.4795 10.1788 26.1259 9.82516C25.7724 9.47151 25.3503 9.19386 24.8856 9.00925C24.4209 8.82463 23.9233 8.73694 23.4235 8.75157C22.9664 8.76142 22.5163 8.86551 22.1013 9.05733C21.6863 9.24916 21.3153 9.52458 21.0117 9.86637C20.5915 10.3533 20.2499 10.9029 19.9992 11.4953C19.7486 10.9029 19.407 10.3533 18.9868 9.86637C18.6831 9.52458 18.3122 9.24916 17.8972 9.05733C17.4822 8.86551 17.0321 8.76142 16.575 8.75157C16.0751 8.73694 15.5776 8.82463 15.1129 9.00925C14.6481 9.19386 14.2261 9.47151 13.8725 9.82516C13.519 10.1788 13.2415 10.601 13.057 11.0657C12.8725 11.5305 12.785 12.0281 12.7997 12.5279C12.8097 12.9848 12.9139 13.4347 13.1057 13.8495C13.2975 14.2643 13.5729 14.6351 13.9145 14.9386C13.9573 14.9758 14.0023 15.0118 14.0461 15.0511H10.0999C9.62257 15.0511 9.16476 15.2408 8.82722 15.5783C8.48968 15.9158 8.30005 16.3736 8.30005 16.851V20.4508C8.30005 20.9281 8.48968 21.3859 8.82722 21.7235C9.16476 22.061 9.62257 22.2506 10.0999 22.2506V29.4501C10.0999 29.9275 10.2896 30.3853 10.6271 30.7228C10.9646 31.0604 11.4224 31.25 11.8998 31.25H18.6493C18.7687 31.25 18.8831 31.2026 18.9675 31.1182C19.0519 31.0338 19.0993 30.9194 19.0993 30.8V20.4508H10.0999V16.851H19.0993V20.4508H20.8992V16.851H29.8985V20.4508H20.8992V30.8C20.8992 30.9194 20.9466 31.0338 21.031 31.1182C21.1153 31.2026 21.2298 31.25 21.3491 31.25H28.0987C28.576 31.25 29.0338 31.0604 29.3714 30.7228C29.7089 30.3853 29.8985 29.9275 29.8985 29.4501V22.2506C30.3759 22.2506 30.8337 22.061 31.1712 21.7235C31.5088 21.3859 31.6984 20.9281 31.6984 20.4508V16.851C31.6984 16.3736 31.5088 15.9158 31.1712 15.5783C30.8337 15.2408 30.3759 15.0511 29.8985 15.0511ZM15.1069 13.5887C14.9496 13.4462 14.8234 13.2728 14.7363 13.0792C14.6492 12.8856 14.603 12.6761 14.6007 12.4638C14.595 12.2151 14.6391 11.9677 14.7302 11.7362C14.8213 11.5048 14.9577 11.2938 15.1314 11.1157C15.3051 10.9376 15.5126 10.7959 15.7418 10.699C15.9709 10.6022 16.2171 10.552 16.4659 10.5514H16.521C16.7332 10.5537 16.9427 10.5999 17.1363 10.687C17.3299 10.7741 17.5034 10.9003 17.6459 11.0577C18.5897 12.1241 18.9227 13.8925 19.0397 14.9859C17.9417 14.87 16.1745 14.537 15.1069 13.5887ZM24.8938 13.5887C23.8262 14.5337 22.0545 14.8666 20.9565 14.9836C21.0904 13.8013 21.4616 12.0701 22.3616 11.0588C22.5041 10.9014 22.6775 10.7752 22.8711 10.6881C23.0647 10.601 23.2742 10.5549 23.4865 10.5526H23.5416C23.7904 10.5541 24.0364 10.6053 24.2651 10.7032C24.4939 10.801 24.7008 10.9435 24.8738 11.1224C25.0468 11.3012 25.1823 11.5128 25.2725 11.7447C25.3626 11.9765 25.4056 12.2241 25.3989 12.4728C25.3952 12.6836 25.3483 12.8915 25.261 13.0834C25.1737 13.2754 25.048 13.4474 24.8915 13.5887H24.8938Z" fill="#D658B3"/>
<path d="M16.4641 9.92676C16.1323 9.92752 15.8039 9.99384 15.4983 10.123C15.1926 10.2523 14.9156 10.442 14.6838 10.6797C14.5101 10.8579 14.3645 11.0607 14.2512 11.2812L14.1487 11.5068C14.0281 11.8131 13.9694 12.1407 13.9758 12.4697V12.4707C13.9783 12.6945 14.0151 12.9163 14.0852 13.1279L14.1663 13.3359C14.258 13.5398 14.3808 13.7278 14.5295 13.8936L14.6917 14.0557C15.3196 14.6135 16.1239 14.9677 16.8801 15.1973C17.6427 15.4287 18.401 15.547 18.9739 15.6074L19.7434 15.6885L19.6614 14.9189C19.6003 14.3487 19.4821 13.5917 19.2512 12.8301C19.0509 12.1692 18.7554 11.4713 18.3127 10.8867L18.1135 10.6436L18.1096 10.6377L17.9514 10.4805C17.8407 10.381 17.7198 10.2935 17.5911 10.2188L17.3928 10.1172C17.1886 10.0253 16.9718 9.96576 16.7502 9.94043L16.5276 9.92676H16.4641ZM10.7249 21.626H10.0999C9.82729 21.626 9.56474 21.5306 9.35571 21.3594L9.2688 21.2812C9.04876 21.061 8.92516 20.7625 8.92505 20.4512V16.8506C8.92515 16.5782 9.01958 16.3154 9.19067 16.1064L9.2688 16.0205C9.48911 15.8002 9.78828 15.6758 10.0999 15.6758H15.678L14.4631 14.5859L14.3245 14.4668C14.1187 14.283 13.9424 14.0693 13.802 13.833L13.6731 13.5869C13.5563 13.3344 13.4791 13.066 13.4446 12.791L13.425 12.5146L13.4241 12.5098V12.3545C13.4307 12.0441 13.4846 11.7365 13.5842 11.4424L13.6379 11.2959C13.7718 10.9587 13.9648 10.6486 14.2073 10.3799L14.3147 10.2666C14.5712 10.0101 14.8714 9.80201 15.2004 9.65137L15.344 9.58984C15.6813 9.45589 16.0396 9.38383 16.4016 9.37598H16.5618C16.84 9.38199 17.115 9.43167 17.3772 9.52148L17.635 9.625C17.8876 9.74179 18.12 9.89677 18.3245 10.084L18.5198 10.2812C18.8948 10.7173 19.1999 11.2096 19.4241 11.7393L19.9993 13.0986L20.5745 11.7393C20.7986 11.2096 21.1038 10.7173 21.4788 10.2812C21.6636 10.0732 21.8792 9.89546 22.1174 9.75391L22.3635 9.625C22.6163 9.50815 22.8851 9.4309 23.1604 9.39648L23.4368 9.37598H23.5969C23.9073 9.38272 24.215 9.43638 24.509 9.53613L24.6545 9.58984C24.992 9.7239 25.3027 9.91732 25.5715 10.1602L25.6838 10.2666C25.9405 10.5234 26.1494 10.8239 26.3 11.1533L26.3606 11.2959C26.4946 11.6334 26.5667 11.9922 26.5745 12.3545V12.5098L26.5735 12.5146C26.5701 12.6661 26.5512 12.8159 26.5227 12.9639H25.9592C25.9979 12.8069 26.0209 12.6459 26.0237 12.4834L26.0227 12.4824C26.0287 12.236 25.9996 11.9905 25.9338 11.7539L25.8547 11.5186C25.7344 11.2092 25.5543 10.9261 25.3235 10.6875C25.1505 10.5086 24.9517 10.357 24.7346 10.2373L24.511 10.1289C24.282 10.031 24.04 9.9676 23.7932 9.94141L23.5452 9.92773H23.4797C23.2559 9.93015 23.0342 9.96702 22.8225 10.0371L22.6145 10.1182C22.4106 10.2099 22.2226 10.3327 22.0569 10.4814L21.8948 10.6436C21.3623 11.242 21.0108 12.0209 20.7756 12.7695C20.5383 13.5252 20.4052 14.2952 20.3352 14.9131L20.2483 15.6875L21.0227 15.6055C21.5952 15.5445 22.3541 15.4263 23.1174 15.1953C23.8744 14.9662 24.6797 14.6127 25.3079 14.0566L26.5188 12.9844C26.4954 13.1012 26.4677 13.2172 26.429 13.3301L26.3254 13.5869C26.2087 13.8394 26.0536 14.072 25.8665 14.2764L25.6692 14.4717L25.6604 14.4785C25.6304 14.5061 25.6103 14.5224 25.5491 14.5742L24.2463 15.6758H29.8987C30.2102 15.6758 30.5094 15.8002 30.7297 16.0205C30.9498 16.2407 31.0734 16.5393 31.0735 16.8506V20.4512C31.0734 20.7238 30.9782 20.9863 30.8069 21.1953L30.7297 21.2812C30.5094 21.5015 30.2102 21.6259 29.8987 21.626H29.2737V29.4502C29.2737 29.7618 29.1493 30.0609 28.929 30.2812C28.7087 30.5013 28.4102 30.6249 28.0989 30.625H21.5237V21.0762H30.5237V16.2256H20.2737V19.8262H19.7239V16.2256H9.47485V21.0762H18.4739V30.625H11.8997C11.6272 30.625 11.3645 30.5304 11.1555 30.3594L11.0686 30.2812C10.8483 30.0609 10.7249 29.7617 10.7249 29.4502V21.626Z" stroke="white" stroke-width="1.25"/>
</g>
</g>
<defs>
<filter id="filter0_dddd_2131_244" x="-6.25" y="-1.25" width="52.5" height="63.75" filterUnits="userSpaceOnUse" color-interpolation-filters="sRGB">
<feFlood flood-opacity="0" result="BackgroundImageFix"/>
<feColorMatrix in="SourceAlpha" type="matrix" values="0 0 0 0 0 0 0 0 0 0 0 0 0 0 0 0 0 0 127 0" result="hardAlpha"/>
<feOffset dy="1.25"/>
<feGaussianBlur stdDeviation="1.25"/>
<feColorMatrix type="matrix" values="0 0 0 0 0 0 0 0 0 0 0 0 0 0 0 0 0 0 0.08 0"/>
<feBlend mode="normal" in2="BackgroundImageFix" result="effect1_dropShadow_2131_244"/>
<feColorMatrix in="SourceAlpha" type="matrix" values="0 0 0 0 0 0 0 0 0 0 0 0 0 0 0 0 0 0 127 0" result="hardAlpha"/>
<feOffset dy="3.75"/>
<feGaussianBlur stdDeviation="1.875"/>
<feColorMatrix type="matrix" values="0 0 0 0 0 0 0 0 0 0 0 0 0 0 0 0 0 0 0.07 0"/>
<feBlend mode="normal" in2="effect1_dropShadow_2131_244" result="effect2_dropShadow_2131_244"/>
<feColorMatrix in="SourceAlpha" type="matrix" values="0 0 0 0 0 0 0 0 0 0 0 0 0 0 0 0 0 0 127 0" result="hardAlpha"/>
<feOffset dy="9.375"/>
<feGaussianBlur stdDeviation="2.8125"/>
<feColorMatrix type="matrix" values="0 0 0 0 0 0 0 0 0 0 0 0 0 0 0 0 0 0 0.04 0"/>
<feBlend mode="normal" in2="effect2_dropShadow_2131_244" result="effect3_dropShadow_2131_244"/>
<feColorMatrix in="SourceAlpha" type="matrix" values="0 0 0 0 0 0 0 0 0 0 0 0 0 0 0 0 0 0 127 0" result="hardAlpha"/>
<feOffset dy="16.25"/>
<feGaussianBlur stdDeviation="3.125"/>
<feColorMatrix type="matrix" values="0 0 0 0 0 0 0 0 0 0 0 0 0 0 0 0 0 0 0.01 0"/>
<feBlend mode="normal" in2="effect3_dropShadow_2131_244" result="effect4_dropShadow_2131_244"/>
<feBlend mode="normal" in="SourceGraphic" in2="effect4_dropShadow_2131_244" result="shape"/>
</filter>
<filter id="filter1_ddddd_2131_244" x="6.42505" y="8.125" width="27.1484" height="32.5" filterUnits="userSpaceOnUse" color-interpolation-filters="sRGB">
<feFlood flood-opacity="0" result="BackgroundImageFix"/>
<feColorMatrix in="SourceAlpha" type="matrix" values="0 0 0 0 0 0 0 0 0 0 0 0 0 0 0 0 0 0 127 0" result="hardAlpha"/>
<feOffset/>
<feGaussianBlur stdDeviation="0.3125"/>
<feColorMatrix type="matrix" values="0 0 0 0 0 0 0 0 0 0 0 0 0 0 0 0 0 0 0.29 0"/>
<feBlend mode="normal" in2="BackgroundImageFix" result="effect1_dropShadow_2131_244"/>
<feColorMatrix in="SourceAlpha" type="matrix" values="0 0 0 0 0 0 0 0 0 0 0 0 0 0 0 0 0 0 127 0" result="hardAlpha"/>
<feOffset dy="1.25"/>
<feGaussianBlur stdDeviation="0.625"/>
<feColorMatrix type="matrix" values="0 0 0 0 0 0 0 0 0 0 0 0 0 0 0 0 0 0 0.26 0"/>
<feBlend mode="normal" in2="effect1_dropShadow_2131_244" result="effect2_dropShadow_2131_244"/>
<feColorMatrix in="SourceAlpha" type="matrix" values="0 0 0 0 0 0 0 0 0 0 0 0 0 0 0 0 0 0 127 0" result="hardAlpha"/>
<feOffset dy="2.5"/>
<feGaussianBlur stdDeviation="0.9375"/>
<feColorMatrix type="matrix" values="0 0 0 0 0 0 0 0 0 0 0 0 0 0 0 0 0 0 0.15 0"/>
<feBlend mode="normal" in2="effect2_dropShadow_2131_244" result="effect3_dropShadow_2131_244"/>
<feColorMatrix in="SourceAlpha" type="matrix" values="0 0 0 0 0 0 0 0 0 0 0 0 0 0 0 0 0 0 127 0" result="hardAlpha"/>
<feOffset dy="5"/>
<feGaussianBlur stdDeviation="0.9375"/>
<feColorMatrix type="matrix" values="0 0 0 0 0 0 0 0 0 0 0 0 0 0 0 0 0 0 0.04 0"/>
<feBlend mode="normal" in2="effect3_dropShadow_2131_244" result="effect4_dropShadow_2131_244"/>
<feColorMatrix in="SourceAlpha" type="matrix" values="0 0 0 0 0 0 0 0 0 0 0 0 0 0 0 0 0 0 127 0" result="hardAlpha"/>
<feOffset dy="7.5"/>
<feGaussianBlur stdDeviation="0.9375"/>
<feColorMatrix type="matrix" values="0 0 0 0 0 0 0 0 0 0 0 0 0 0 0 0 0 0 0.01 0"/>
<feBlend mode="normal" in2="effect4_dropShadow_2131_244" result="effect5_dropShadow_2131_244"/>
<feBlend mode="normal" in="SourceGraphic" in2="effect5_dropShadow_2131_244" result="shape"/>
</filter>
<clipPath id="clip0_2131_244">
<rect width="40" height="40" fill="white"/>
</clipPath>
</defs>
</svg>
